# xmcd
#
# Track frame offsets:
#	150
#	22629
#	47008
#	69546
#	94179
#	116308
#	139160
#	159764
#	177242
#	192852
#	226109
#
# Disc length: 3566 seconds
#
# Revision: 0
# Processed by: cddbd v1.5.2PL0 Copyright (c) Steve Scherf et al.
# Submitted via: EasyCDDAExtractor 2010.4.0.0
#
DISCID=7c0dec0b
DTITLE=Toumani Diabaté - Cross-Cultural Kora Cd2
DYEAR=1900
DGENRE=
TTITLE0=Atlanta Kaira
TTITLE1=Africa
TTITLE2=Take This Hammer
TTITLE3=Mani Mani Kuru
TTITLE4=Sute Moneba
TTITLE5=Queen Bee
TTITLE6=Kulanjan
TTITLE7=Niani
TTITLE8=A Toumani
TTITLE9=Ndia
TTITLE10=Diabaté
EXTD=
EXTT0=
EXTT1=
EXTT2=
EXTT3=
EXTT4=
EXTT5=
EXTT6=
EXTT7=
EXTT8=
EXTT9=
EXTT10=
PLAYORDER=
